<svg width="304" height="272" viewBox="0 0 304 272" fill="none" xmlns="http://www.w3.org/2000/svg"><path d="M70.906 2.139C-44.492 42.815-21.673 323.571 158.77 263.647c84.23-36.147 65.111-12.434 115.618-40.752 50.508-28.317 24.135-116.094 10.023-146.685-10.806-23.416-54.046-71.894-106.131-52.23C130.11 42.188 108.476-11.1 70.906 2.14z" fill="#47CBBF"/><path fill-rule="evenodd" clip-rule="evenodd" d="M189.013 89.57l9.539 9.43V86.807C216.086 80.357 228 67.718 228 53.182 228 32.095 202.928 15 172 15s-56 17.095-56 38.182c0 21.087 25.072 38.182 56 38.182 5.932 0 11.648-.63 17.013-1.794zm6.777-10.27l-4.217 1.55-.02-.018-4.238.92c-4.8 1.042-9.946 1.612-15.315 1.612-14.068 0-26.451-3.902-35.091-9.793C128.228 67.65 124 60.302 124 53.18c0-7.12 4.228-14.469 12.909-20.388C145.549 26.902 157.932 23 172 23c14.068 0 26.451 3.902 35.091 9.793C215.772 38.712 220 46.062 220 53.182c0 9.756-8.231 20.24-24.21 26.117z" fill="#002279"/><path d="M221 161a6 6 0 100-12 6 6 0 000 12zM184.997 164.662c.065-.018.13-.034.195-.048a6 6 0 101.606 5.767 3 3 0 11-1.801-5.719z" fill="#002279"/><path fill-rule="evenodd" clip-rule="evenodd" d="M245.031 72.504a4 4 0 014.466-3.473l16 2a4 4 0 11-.993 7.938l-4.59-.574-.84 5.113 11.455 1.527a4 4 0 11-1.057 7.93l-11.694-1.56-2.487 15.147C274.708 116.486 288 136.691 288 160c0 26.124-16.696 48.349-40 56.586V248a4 4 0 01-8 0v-29.2a60.281 60.281 0 01-12 1.2c-3.756 0-7.432-.345-11-1.007V248a4 4 0 01-8 0v-31.072a57.358 57.358 0 01-2.429-.869 4 4 0 012.858-7.472A51.862 51.862 0 00228 212c28.718 0 52-23.281 52-52s-23.282-52-52-52c-15.809 0-29.973 7.056-39.512 18.191a91.658 91.658 0 015.829-1.089c6.785-1.053 14.466-1.571 22.081-1.571 7.613 0 15.248.518 21.937 1.573 6.588 1.038 12.64 2.651 16.825 5.051a3.996 3.996 0 011.872 2.427l11.829 43.765a3.999 3.999 0 01-2.143 4.656c-16.677 7.935-42.369 10.437-62.528 9.041l.293 2.051 21.385 6.705a4 4 0 002.334.018l29.16-8.653a4 4 0 012.276 7.67l-29.16 8.652a12 12 0 01-7.004-.054l-17.737-5.561.223 1.562A4 4 0 01202 207h-32a4 4 0 01-3.96-3.434l-1.132-7.926-4.302 1.886a4 4 0 01-4.868-1.349l-7-9.862a4.001 4.001 0 016.524-4.63l5.115 7.206 3.357-1.47-5.694-39.855A4 4 0 01162 143h8.443c7.331-24.856 30.32-43 57.557-43 6.906 0 13.54 1.167 19.715 3.314l2.129-12.966-10.372-1.383a4 4 0 011.057-7.93l10.612 1.415.829-5.048-3.466-.433a4 4 0 01-3.473-4.465zm-63.627 64.385a51.528 51.528 0 00-2.563 6.111H194a4 4 0 013.96 3.434l.45 3.152a6 6 0 111.619 11.336l3.002 21.012c18.371 1.514 41.646-.517 57.21-6.821l-10.47-38.738c-2.962-1.356-7.307-2.522-12.681-3.369-6.202-.977-13.411-1.475-20.692-1.475-7.281 0-14.545.498-20.855 1.476-6.079.943-10.972 2.289-14.139 3.882zm13.793 52.294l.826.259L190.531 151h-23.919l6.857 48h23.919l-.112-.781-4.473-1.402a4 4 0 012.394-7.634z" fill="#002279"/><path d="M79 139a6 6 0 11-12 0 6 6 0 0112 0zM93 145a6 6 0 100-12 6 6 0 000 12z" fill="#002279"/><path fill-rule="evenodd" clip-rule="evenodd" d="M80.442 187.271l3.916 3.371-9.944 9.944c-1.26 1.26-.368 3.414 1.414 3.414h28.858a8 8 0 005.657-2.343l.184-.185a4.002 4.002 0 003.573 3.508l14.898 1.5a4 4 0 004.07-5.573l-6.652-15.324 10.17-10.169c1.26-1.26.367-3.414-1.415-3.414H124V92c0-6.627-5.373-12-12-12H84.653c-2.247-4.73-7.068-8-12.653-8-5.585 0-10.406 3.27-12.653 8H32c-6.627 0-12 5.373-12 12v116c0 6.627 5.373 12 12 12h25v28a4 4 0 008 0v-28h16v28a4 4 0 008 0v-28h25a4 4 0 000-8H32a4 4 0 01-4-4v-25.151l15.525 12.229a4 4 0 003.465.733l33.452-8.54zM72 80a6 6 0 100 12 6 6 0 000-12zM42 92h17.347a13.9 13.9 0 01-1.205-4H32a4 4 0 00-4 4v80.665l18.924 14.907 26.123-6.67-5.657-4.871a4 4 0 115.22-6.062l17.42 15.001 10.627-10.627a8 8 0 015.657-2.343H116V92a4 4 0 00-4-4H85.858a13.9 13.9 0 01-1.205 4H102c5.523 0 10 4.477 10 10v10H32v-10c0-5.523 4.477-10 10-10zm81.014 105.837l-8.042-.81 5.363-5.362 2.679 6.172zM40 102a2 2 0 012-2h60a2 2 0 012 2v2H40v-2z" fill="#002279"/></svg>