<svg width="209" height="96" viewBox="0 0 209 96" fill="none" xmlns="http://www.w3.org/2000/svg"><path d="M152.001 38a3 3 0 100-6 3 3 0 000 6zM164.001 38a3 3 0 100-6 3 3 0 000 6z" fill="#47CBBF"/><path fill-rule="evenodd" clip-rule="evenodd" d="M145.001 22a2 2 0 00-1.575.767c-1.739 2.222-3.625 6.573-5.16 11.528-1.56 5.033-2.846 10.976-3.26 16.557a2.002 2.002 0 00.666 1.643L137.001 51c-1.329 1.495-1.327 1.496-1.326 1.498l.004.003.007.006.015.013.035.03.017.013.021.017.02.017.035.027c.073.056.165.124.28.203.231.156.552.353.983.575.861.445 2.161.992 4.056 1.524 3.784 1.062 9.975 2.074 19.853 2.074 9.878 0 16.069-1.012 19.853-2.074 1.895-.532 3.195-1.08 4.056-1.524.431-.222.752-.419.983-.575.115-.078.207-.147.279-.203l.094-.074.035-.03.015-.013.007-.006.003-.003c.002-.002.004-.003-1.325-1.498l1.329 1.495a2.002 2.002 0 00.666-1.643c-.414-5.581-1.7-11.524-3.26-16.556-1.535-4.956-3.421-9.307-5.16-11.529a2 2 0 00-1.575-.767h-32zm34.772 29.074c-3.341.938-9.151 1.926-18.772 1.926-9.622 0-15.431-.988-18.772-1.926-1.516-.425-2.516-.838-3.13-1.14.472-4.869 1.612-10.016 2.987-14.454 1.31-4.227 2.77-7.602 3.956-9.48h29.918c1.186 1.878 2.646 5.253 3.956 9.48 1.375 4.438 2.515 9.585 2.987 14.455-.614.3-1.614.714-3.13 1.14z" fill="#47CBBF"/><path fill-rule="evenodd" clip-rule="evenodd" d="M197.001 5a5.001 5.001 0 01-3 4.584v13.51a35.833 35.833 0 016 19.906c0 2.823-.325 5.57-.939 8.205l8.763 19.474a2 2 0 11-3.647 1.642l-6.949-15.443c-4.041 9.662-12.171 17.187-22.228 20.41V94a2 2 0 11-4 0V78.32c-2.264.446-4.605.68-7 .68-3.108 0-6.123-.394-9-1.134V94a2 2 0 11-4 0V76.581c-13.458-5.213-23-18.283-23-33.581 0-1.33.072-2.642.212-3.934l-15.58-14.607a2 2 0 112.736-2.918l13.675 12.82C132.913 18.651 147.097 7 164.001 7c10.221 0 19.447 4.26 26 11.1V9.584a5.001 5.001 0 117-4.584zm-33 70c17.673 0 32-14.327 32-32 0-17.673-14.327-32-32-32-17.673 0-32 14.327-32 32 0 17.673 14.327 32 32 32z" fill="#47CBBF"/><path d="M63.001 32.045a2.999 2.999 0 10-3-2.998 2.999 2.999 0 003 2.998zM78.001 29.047a2.999 2.999 0 01-3 2.998 2.999 2.999 0 113-2.998z" fill="#FEB32B"/><path fill-rule="evenodd" clip-rule="evenodd" d="M92.11 0l-.112 2.169-.001.024-.004.08a92.53 92.53 0 00-.06 1.587 212.014 212.014 0 00-.097 4.752 269.24 269.24 0 00.35 16.334c.09 1.751.202 3.56.338 5.415l14.417-9.004a2 2 0 012.756.635 1.997 1.997 0 01-.636 2.754l-16 9.993c-.054.034-.11.065-.166.093 1.02 10.992 2.947 23.08 6.5 33.544l.812 2.394-27.303 2.579 4.308 8.61-4.383 9.856a2 2 0 01-3.655-1.624l3.616-8.132-4.156-8.307-20.329 1.92 2.793 8.836-3.19 10.095a2 2 0 01-3.815-1.204l2.81-8.891-2.67-8.452-11.469 1.083-.587-1.304c-.797-1.772-1.73-4.672-2.659-8.6L13.57 69.36l5.387-31.32a2.008 2.008 0 01-.52-.08l-17-4.997a1.998 1.998 0 111.129-3.835l17 4.997c.02.006.041.012.061.02L25.03 2.726l.024.004.025-.605L92.109 0zM24.87 27.25l-6.438 37.43 10.232-1.363c-.665-3.311-1.307-7.15-1.872-11.477-.906-6.937-1.622-15.177-1.922-24.59zm5.888 24.072c-1.51-11.557-2.49-26.874-1.832-45.319l58.995-1.871a219.288 219.288 0 00-.085 4.442c-.04 4.123.008 9.91.354 16.58.652 12.564 2.372 28.386 6.637 42.11l-59.53 5.62c-1.352-3.688-3.16-11-4.539-21.562z" fill="#FEB32B"/><path d="M111.001 10a1 1 0 011 1v4a1 1 0 01-2 0v-4a1 1 0 011-1zM106.135 16.572a1 1 0 101.732-1l-2-3.464a1 1 0 10-1.732 1l2 3.464zM117.501 11.742a1 1 0 01.366 1.366l-2 3.464a1 1 0 11-1.732-1l2-3.464a1 1 0 011.366-.366zM122.26 16.5a1 1 0 01-.366 1.366l-3.464 2a1 1 0 01-1-1.732l3.464-2a1 1 0 011.366.366zM104.939 19.5a1 1 0 01-1.366.366l-3.464-2a1 1 0 111-1.732l3.464 2a1 1 0 01.366 1.366zM112.754 29.036c.52-.148 1.055.174 1.195.719l1.017 3.943c.14.544-.167 1.105-.686 1.252-.52.147-1.054-.175-1.195-.72l-1.017-3.942c-.14-.544.167-1.105.686-1.252zM109.224 29.044c.52.145.83.704.692 1.25l-1 3.947c-.138.545-.672.87-1.192.724-.52-.144-.829-.703-.691-1.248l1-3.948c.138-.545.671-.87 1.191-.725z" fill="#fff"/></svg>