<svg width="304" height="272" viewBox="0 0 304 272" fill="none" xmlns="http://www.w3.org/2000/svg"><path d="M203.821 23.055c23.852 27.621 30.502-1.416 62.959 0 32.458 1.416 37.604 31.511 37.199 57.671-.405 26.16-41.109 65.055-8.676 107.876 32.434 42.821-41.98 68.766-58.76 73.903-16.78 5.137-107.345 30.414-185.5-31.082C-27.11 169.926-.343 88.137 31.69 52.728 68.16 12.413 161.488-25.97 203.82 23.055z" fill="#FEB32B"/><path fill-rule="evenodd" clip-rule="evenodd" d="M145 32h-16v16H97V16h16V0h32v32zm-8-24h-16v8h8v8h8V8zm-32 32V24h16v16h-16z" fill="#002279"/><path d="M87 159a6 6 0 11-12 0 6 6 0 0112 0zM101 163a6 6 0 100-12 6 6 0 000 12z" fill="#002279"/><path fill-rule="evenodd" clip-rule="evenodd" d="M115.174 136.5c-24.362-1.494-50.524 1.992-74.142 7.335l-2.226.504-.699 2.173A43.97 43.97 0 0036 160c0 24.3 19.7 44 44 44 24.301 0 44-19.7 44-44a43.81 43.81 0 00-5.581-21.461l-1.066-1.905-2.179-.134zM44 160c0-3.067.383-6.04 1.101-8.875 21.81-4.784 45.393-7.819 67.335-6.763A35.84 35.84 0 01116 160c0 19.882-16.118 36-36 36s-36-16.118-36-36z" fill="#002279"/><path fill-rule="evenodd" clip-rule="evenodd" d="M76 100a59.747 59.747 0 00-37 12.763V94.93a8 8 0 10-8 0v25.383C21.665 130.89 16 144.783 16 160c0 13.335 4.35 25.653 11.708 35.614l-6.58 25.382a4 4 0 107.744 2.008l5.206-20.079A59.933 59.933 0 0060 217.843V248a4 4 0 008 0v-28.529a60.5 60.5 0 008 .529c5.54 0 10.906-.751 16-2.157V248a4 4 0 008 0v-32.993a60.1 60.1 0 0018.334-12.489l5.88 17.271a4 4 0 107.573-2.578l-7.398-21.729C131.689 185.544 136 173.275 136 160c0-33.137-26.863-60-60-60zm-52 60c0-28.719 23.281-52 52-52s52 23.281 52 52-23.281 52-52 52-52-23.281-52-52z" fill="#002279"/><path d="M207 135a6 6 0 100-12 6 6 0 000 12zM233 129a6 6 0 11-12 0 6 6 0 0112 0z" fill="#002279"/><path fill-rule="evenodd" clip-rule="evenodd" d="M289 100v120h-29.265l12.529 17.688a4 4 0 11-6.528 4.624L249.932 220H224v28a4 4 0 01-8 0v-28h-31v-8a4 4 0 018 0h88v-24.574c-1.225 5.119-2.641 9.877-4.278 14.039l-.997 2.535h-108.88l2.5-5.625c2.789-6.275 4.974-15.246 6.645-25.414 1.58-9.612 2.665-20.058 3.409-29.871L160.844 116H137V84h32v29.751l11.221 16.382c.295-5.706.479-10.85.593-15.039.093-3.423.14-6.203.163-8.125.011-.961.017-1.706.02-2.21l.002-.571.001-.143V100h108zm-105.115 74.258c1.692-10.293 2.82-21.422 3.575-31.692.027-.184.04-.37.041-.556a603.197 603.197 0 001.463-34.01h91.996a569.551 569.551 0 01-1.449 32.266 443.86 443.86 0 01-1.388 15.249l-16.578 14.506-17.369-5.344a4 4 0 10-2.352 7.646l19.5 6c1.325.408 2.767.1 3.81-.813l11.473-10.039c-1.543 10.56-3.616 20.6-6.389 28.529h-91.399c2.125-6.334 3.771-13.87 5.066-21.742zM145 108h10.364l-.164-.24a4 4 0 015.8-5.384V92h-16v16zM181 51V19h32v32h-32zm8-24h16v16h-16V27zM40 62V30h32v32H40zm8-24h16v16H48V38zM220 48v32h32V48h-32zm24 8h-16v16h16V56zM269 69V37h32v32h-32zm8-24h16v16h-16V45z" fill="#002279"/></svg>