<svg width="124" height="64" viewBox="0 0 124 64" fill="none" xmlns="http://www.w3.org/2000/svg"><path fill-rule="evenodd" clip-rule="evenodd" d="M11.492 18.883a17.238 17.238 0 018.2-1.162c8.633.866 15.477 8.193 15.728 16.877.307 9.915-7.63 18.04-17.47 18.04-2.279 0-4.454-.456-6.458-1.254v6.29a4.93 4.93 0 01-3.964 4.833L0 64V21.117a3.28 3.28 0 012.608-3.214l8.884-1.88v2.86zm-1.14 16.25c0 4.194 3.406 7.602 7.597 7.602 4.203 0 7.608-3.408 7.597-7.601 0-4.194-3.406-7.602-7.597-7.602-4.191 0-7.596 3.408-7.596 7.602zM108.788 17.777C97.353 16.33 87.73 25.96 89.176 37.401c.98 7.795 7.278 14.097 15.068 15.077 11.434 1.447 21.058-8.182 19.612-19.624-.98-7.795-7.267-14.097-15.068-15.077zm-.786 24.81a7.609 7.609 0 01-8.94-8.947c.57-2.997 2.984-5.401 5.968-5.971a7.609 7.609 0 018.94 8.946c-.558 2.997-2.973 5.413-5.968 5.971z" fill="#002279"/><path d="M51.422 18.381H39.748v33.447h8.393c1.811 0 3.28-1.47 3.28-3.282V18.382zM76.83 19.977l-4.043 6.746-3.997-6.735a3.293 3.293 0 00-2.825-1.607H55.237l11.002 16.627-11.242 16.81h10.501c1.15 0 2.221-.605 2.813-1.585l4.294-7.134 4.237 7.111a3.263 3.263 0 002.813 1.607h10.74L79.154 34.883l10.99-16.502h-10.5c-1.15 0-2.222.604-2.814 1.596z" fill="#002279"/><path d="M37.47 3.726l2.243 10.097H51.41L55.988 0 37.47 3.726z" fill="#47CBBF"/></svg>